#!OML:ASF H:\Terrain\Patient Classification 1\Animal2\Wednesday\Animal2.ASF
:FULLY-SPECIFIED
:DEGREES
448
root 10.2259 17.3828 18.0472 0.818813 4.83778 4.09343
lowerback 2.11867 -4.29428 -4.5691
upperback -0.784035 -5.84172 1.07238
thorax -1.42473 -2.8705 3.81687
lowerneck -0.244769 8.00028 16.5221
upperneck 2.69725 11.5097 -21.8111
head 3.13438 5.65478 -9.07068
rclavicle 2.59911e-014 -1.51076e-014
rhumerus -43.5451 -12.1779 -71.9719
rradius 15.1929
rwrist 28.5536
rhand -13.4397 19.732
rfingers 7.12502
rthumb 12.6693 -9.86374
lclavicle 2.59911e-014 -1.51076e-014
lhumerus -27.9824 -14.9493 88.6979
lradius 45.2197
lwrist 18.3558
lhand -22.6594 25.3731
lfingers 7.12502
lthumb 3.77202 55.3194
rfemur -30.8677 -6.26593 16.4936
rtibia 20.4127
rfoot -17.6322 -0.177938
rtoes 5.7269
lfemur 20.2777 -0.46911 -26.6803
ltibia 9.54166e-015
lfoot -16.8142 -0.767641
ltoes -31.7368
449
root 10.2039 17.3534 18.2357 0.810064 5.03256 4.06012
lowerback 2.06686 -4.25985 -4.56903
upperback -0.735762 -5.79164 1.12933
thorax -1.34495 -2.84852 3.86751
lowerneck -0.54839 7.98297 16.4167
upperneck 2.71689 11.4439 -21.7059
head 3.16628 5.60484 -9.00899
rclavicle -4.80997e-014 -1.19271e-014
rhumerus -43.6695 -12.5698 -71.6479
rradius 15.0274
rwrist 28.7398
rhand -13.1683 19.604
rfingers 7.12502
rthumb 12.931 -9.97537
lclavicle -4.80997e-014 -1.19271e-014
lhumerus -27.9979 -15.1006 89.0276
lradius 45.435
lwrist 18.4017
lhand -22.8189 26.7101
lfingers 7.12502
lthumb 3.61798 56.6591
rfemur -30.3736 -5.86157 16.2624
rtibia 20.2035
rfoot -16.9636 -0.196202
rtoes 10.2525
lfemur 20.996 -0.815997 -26.5713
ltibia -1.27222e-014
lfoot -16.7172 -0.994116
ltoes -30.287
450
root 10.1851 17.31 18.4198 0.917042 5.20773 4.16949
lowerback 1.78354 -4.24811 -4.61394
upperback -0.606897 -5.76189 1.08314
thorax -1.05688 -2.84384 3.8133
lowerneck -0.843442 8.00825 16.6058
upperneck 2.71183 11.4482 -21.8598
head 3.23948 5.59079 -9.08087
rclavicle -1.3828e-014 -7.95139e-015
rhumerus -43.5111 -12.3241 -72.0057
rradius 14.9618
rwrist 28.2614
rhand -13.5076 19.7421
rfingers 7.12502
rthumb 12.6039 -9.85764
lclavicle -1.3828e-014 -7.95139e-015
lhumerus -27.9757 -15.5497 89.3341
lradius 45.1286
lwrist 19.7398
lhand -24.3238 23.5524
lfingers 7.12502
lthumb 2.16464 53.5212
rfemur -30.1101 -5.73715 15.9763
rtibia 20.3684
rfoot -16.352 -0.420017
rtoes 10.2488
lfemur 21.5918 -1.14818 -26.6389
ltibia -3.18055e-015
lfoot -16.5053 -1.10175
ltoes -30.0396
451
root 10.1378 17.2758 18.6084 0.514535 4.8818 3.19571
lowerback 1.997 -4.11507 -3.96156
upperback -0.481886 -5.5714 1.42468
thorax -1.09347 -2.75422 3.81357
lowerneck -0.600761 8.00093 16.6072
upperneck 2.47671 11.4398 -21.9301
head 3.1334 5.60485 -9.11723
rclavicle 2.1593e-014 -1.19271e-014
rhumerus -43.5932 -11.8482 -72.2285
rradius 15.0914
rwrist 28.0721
rhand -13.4627 19.7176
rfingers 7.12502
rthumb 12.6471 -9.87947
lclavicle 2.1593e-014 -1.19271e-014
lhumerus -27.8681 -14.5303 89.0536
lradius 46.0144
lwrist 15.3542
lhand -19.5031 31.9761
lfingers 7.12502
lthumb 6.81948 61.8463
rfemur -29.2451 -3.5333 16.661
rtibia 20.5546
rfoot -15.3322 -3.16377
rtoes 3.50587
lfemur 21.6218 -1.00323 -25.3469
ltibia 1.88962
lfoot -17.2718 -0.92269
ltoes -30.1588
452
root 10.1338 17.2536 18.7723 0.585493 5.61519 3.69989
lowerback 2.46186 -4.3972 -4.22331
upperback -0.804461 -5.98037 1.29997
thorax -1.63464 -2.93656 3.89345
lowerneck -0.116348 7.98084 16.4754
upperneck 2.27076 11.4381 -21.8113
head 2.97361 5.63585 -9.07631
rclavicle 3.07557e-014 1.90833e-014
rhumerus -43.989 -11.6727 -72.0266
rradius 15.1035
rwrist 28.591
rhand -13.1772 19.7323
rfingers 7.12502
rthumb 12.9224 -9.84761
lclavicle 3.07557e-014 1.90833e-014
lhumerus -28.6708 -14.2929 89.4453
lradius 45.6722
lwrist 16.5167
lhand -21.4676 28.8229
lfingers 7.12502
lthumb 4.92289 58.7457
rfemur -28.9703 -5.54769 16.491
rtibia 21.0847
rfoot -13.5246 -3.04364
rtoes -1.54603
lfemur 21.3394 -1.84751 -25.9158
ltibia 3.62071
lfoot -17.5815 -0.881862
ltoes -29.2658
453
root 10.0871 17.2508 18.9754 0.434177 5.45882 3.20686
lowerback 2.47748 -4.33543 -4.07619
upperback -0.80022 -5.89009 1.51737
thorax -1.63942 -2.89245 4.03493
lowerneck -0.1492 7.98596 16.3864
upperneck 2.28902 11.4303 -21.5911
head 2.96251 5.6311 -8.98484
rclavicle 1.12686e-014 -6.36111e-015
rhumerus -44.0985 -12.4544 -71.3446
rradius 14.6974
rwrist 30.079
rhand -13.3496 19.985
rfingers 7.12502
rthumb 12.7561 -9.60533
lclavicle 1.12686e-014 -6.36111e-015
lhumerus -29.2615 -14.5715 89.9419
lradius 45.1993
lwrist 18.6611
lhand -23.7525 24.3655
lfingers 7.12502
lthumb 2.7164 54.328
rfemur -28.6648 -4.19325 16.9058
rtibia 21.5956
rfoot -10.8902 -5.21325
rtoes -2.44447
lfemur 21.3574 -1.88562 -25.1585
ltibia 5.01987
lfoot -17.6295 -0.561488
ltoes -31.2043
454
root 10.0633 17.2577 19.1715 0.431895 5.68355 3.03883
lowerback 2.40366 -4.34992 -3.94711
upperback -0.757215 -5.90061 1.59368
thorax -1.55745 -2.90189 4.03329
lowerneck -0.339032 7.9919 16.4513
upperneck 2.3361 11.4195 -21.5725
head 3.00951 5.61523 -8.98183
rclavicle -2.12016e-014 -3.33958e-014
rhumerus -43.9932 -12.8499 -71.0628
rradius 14.4244
rwrist 30.5487
rhand -13.2823 19.8951
rfingers 7.12502
rthumb 12.8211 -9.69116
lclavicle -2.12016e-014 -3.33958e-014
lhumerus -29.2881 -14.2712 90.0128
lradius 44.904
lwrist 17.2892
lhand -22.0483 24.9981
lfingers 7.12502
lthumb 4.36209 54.9331
rfemur -28.7221 -4.28012 17.0679
rtibia 22.4596
rfoot -8.88308 -5.77934
rtoes -4.77094
lfemur 21.6682 -2.26872 -24.9053
ltibia 5.72777
lfoot -17.246 -0.732362
ltoes -31.8226
